<svg width="48" height="48" viewBox="0 0 48 48" fill="none" xmlns="http://www.w3.org/2000/svg">
<path d="M35.99 43.069C35.4895 43.0683 35.008 42.8774 34.643 42.535L29.758 38H18.34C18.0748 38 17.8204 37.8946 17.6329 37.7071C17.4454 37.5196 17.34 37.2652 17.34 37C17.34 36.7348 17.4454 36.4804 17.6329 36.2929C17.8204 36.1054 18.0748 36 18.34 36H30.15C30.4027 36.0001 30.646 36.0958 30.831 36.268L36.001 41.068V37C36.001 36.7348 36.1064 36.4804 36.2939 36.2929C36.4814 36.1054 36.7358 36 37.001 36H41.001C41.7966 36 42.5597 35.6839 43.1223 35.1213C43.6849 34.5587 44.001 33.7956 44.001 33V16C44.0001 15.4743 43.8611 14.958 43.5978 14.5029C43.3345 14.0478 42.9563 13.6699 42.501 13.407C42.2711 13.2744 42.1032 13.0559 42.0344 12.7995C41.9656 12.5431 42.0014 12.2699 42.134 12.04C42.2666 11.8101 42.4851 11.6422 42.7415 11.5734C42.9979 11.5046 43.2711 11.5404 43.501 11.673C44.2604 12.1117 44.8911 12.7425 45.3298 13.5019C45.7684 14.2614 45.9995 15.1229 46 16V33C45.9984 34.3256 45.4711 35.5964 44.5338 36.5338C43.5964 37.4711 42.3256 37.9984 41 38H38V41.06C37.9984 41.5925 37.7861 42.1027 37.4095 42.4792C37.0328 42.8556 36.5225 43.0677 35.99 43.069V43.069Z" fill="#ffffff" id="id_101"></path>
<path d="M12.01 38.068C11.7311 38.0675 11.4553 38.0093 11.2 37.897C10.8413 37.7438 10.536 37.488 10.3224 37.1616C10.1089 36.8353 9.9967 36.453 10 36.063V33H7C5.6744 32.9984 4.40356 32.4711 3.46622 31.5338C2.52888 30.5964 2.00159 29.3256 2 28V11C2.00159 9.6744 2.52888 8.40356 3.46622 7.46622C4.40356 6.52888 5.6744 6.00159 7 6H35C36.3256 6.00159 37.5964 6.52888 38.5338 7.46622C39.4711 8.40356 39.9984 9.6744 40 11V28C39.9984 29.3256 39.4711 30.5964 38.5338 31.5338C37.5964 32.4711 36.3256 32.9984 35 33H18.238L13.361 37.529C12.9956 37.8739 12.5125 38.0666 12.01 38.068ZM7 8C6.20435 8 5.44129 8.31607 4.87868 8.87868C4.31607 9.44129 4 10.2044 4 11V28C4 28.7956 4.31607 29.5587 4.87868 30.1213C5.44129 30.6839 6.20435 31 7 31H11C11.2652 31 11.5196 31.1054 11.7071 31.2929C11.8946 31.4804 12 31.7348 12 32V36.063L17.165 31.263C17.3507 31.0926 17.594 30.9987 17.846 31H35C35.7956 31 36.5587 30.6839 37.1213 30.1213C37.6839 29.5587 38 28.7956 38 28V11C38 10.2044 37.6839 9.44129 37.1213 8.87868C36.5587 8.31607 35.7956 8 35 8H7Z" fill="#ffffff" id="id_102"></path>
<path d="M30 23C29.3078 23 28.6311 22.7947 28.0555 22.4101C27.4799 22.0256 27.0313 21.4789 26.7664 20.8394C26.5015 20.1999 26.4322 19.4961 26.5673 18.8172C26.7023 18.1383 27.0356 17.5146 27.5251 17.0251C28.0146 16.5356 28.6383 16.2023 29.3172 16.0673C29.9961 15.9322 30.6999 16.0015 31.3394 16.2664C31.9789 16.5313 32.5256 16.9799 32.9101 17.5555C33.2947 18.1311 33.5 18.8078 33.5 19.5C33.5 20.4283 33.1313 21.3185 32.4749 21.9749C31.8185 22.6313 30.9283 23 30 23V23ZM30 18C29.7033 18 29.4133 18.088 29.1666 18.2528C28.92 18.4176 28.7277 18.6519 28.6142 18.926C28.5007 19.2001 28.4709 19.5017 28.5288 19.7926C28.5867 20.0836 28.7296 20.3509 28.9393 20.5607C29.1491 20.7704 29.4164 20.9133 29.7074 20.9712C29.9983 21.0291 30.2999 20.9994 30.574 20.8858C30.8481 20.7723 31.0824 20.58 31.2472 20.3334C31.412 20.0867 31.5 19.7967 31.5 19.5C31.5 19.1022 31.342 18.7206 31.0607 18.4393C30.7794 18.158 30.3978 18 30 18Z" fill="#ffffff" id="id_103"></path>
<path d="M21 23C20.3078 23 19.6311 22.7947 19.0555 22.4101C18.4799 22.0256 18.0313 21.4789 17.7664 20.8394C17.5015 20.1999 17.4322 19.4961 17.5673 18.8172C17.7023 18.1383 18.0356 17.5146 18.5251 17.0251C19.0146 16.5356 19.6383 16.2023 20.3172 16.0673C20.9961 15.9322 21.6999 16.0015 22.3394 16.2664C22.9789 16.5313 23.5256 16.9799 23.9101 17.5555C24.2947 18.1311 24.5 18.8078 24.5 19.5C24.5 20.4283 24.1313 21.3185 23.4749 21.9749C22.8185 22.6313 21.9283 23 21 23V23ZM21 18C20.7033 18 20.4133 18.088 20.1666 18.2528C19.92 18.4176 19.7277 18.6519 19.6142 18.926C19.5007 19.2001 19.4709 19.5017 19.5288 19.7926C19.5867 20.0836 19.7296 20.3509 19.9393 20.5607C20.1491 20.7704 20.4164 20.9133 20.7074 20.9712C20.9983 21.0291 21.2999 20.9994 21.574 20.8858C21.8481 20.7723 22.0824 20.58 22.2472 20.3334C22.412 20.0867 22.5 19.7967 22.5 19.5C22.5 19.1022 22.342 18.7206 22.0607 18.4393C21.7794 18.158 21.3978 18 21 18Z" fill="#ffffff" id="id_104"></path>
<path d="M12 23C11.3078 23 10.6311 22.7947 10.0555 22.4101C9.47993 22.0256 9.03133 21.4789 8.76642 20.8394C8.50152 20.1999 8.4322 19.4961 8.56725 18.8172C8.7023 18.1383 9.03564 17.5146 9.52513 17.0251C10.0146 16.5356 10.6383 16.2023 11.3172 16.0673C11.9961 15.9322 12.6999 16.0015 13.3394 16.2664C13.9789 16.5313 14.5256 16.9799 14.9101 17.5555C15.2947 18.1311 15.5 18.8078 15.5 19.5C15.5 20.4283 15.1313 21.3185 14.4749 21.9749C13.8185 22.6313 12.9283 23 12 23V23ZM12 18C11.7033 18 11.4133 18.088 11.1666 18.2528C10.92 18.4176 10.7277 18.6519 10.6142 18.926C10.5007 19.2001 10.4709 19.5017 10.5288 19.7926C10.5867 20.0836 10.7296 20.3509 10.9393 20.5607C11.1491 20.7704 11.4164 20.9133 11.7074 20.9712C11.9983 21.0291 12.2999 20.9994 12.574 20.8858C12.8481 20.7723 13.0824 20.58 13.2472 20.3334C13.412 20.0867 13.5 19.7967 13.5 19.5C13.5 19.1022 13.342 18.7206 13.0607 18.4393C12.7794 18.158 12.3978 18 12 18Z" fill="#ffffff" id="id_105"></path>
</svg>